<svg width="130" height="22" viewBox="0 0 130 22" fill="none" xmlns="http://www.w3.org/2000/svg">
<path d="M72.6791 8.3269L72.6794 4.46106L70.1438 4.4609L70.1435 9.56933L72.6791 8.3269ZM75.7107 10.4809L75.7102 18.0193C75.7101 19.8141 74.8005 20.6701 72.8988 20.67L67.1111 20.6696L67.1123 1.5061L73.1481 1.50649C74.7466 1.50659 75.7112 2.44549 75.7111 4.12989L75.7108 8.16141C75.7107 9.404 75.3248 10.1495 74.3602 10.4808L75.7107 10.4809ZM72.6785 17.6877L72.6789 11.53L70.1433 12.8001L70.143 17.6876L72.6785 17.6877Z" fill="white"/>
<path d="M86.5836 20.6708L83.4416 20.6706L83.4422 12.5524L81.127 13.7396L81.1265 20.6705L77.9846 20.6703L77.9857 4.13004C77.9858 2.44564 78.9229 1.50685 80.5214 1.50695L84.0216 1.50718C85.6202 1.50728 86.5847 2.44618 86.5846 4.13058L86.5836 20.6708ZM83.4424 9.18359L83.4427 4.54458L81.1276 4.54443L81.1272 10.3156L83.4424 9.18359Z" fill="white"/>
<path d="M94.3698 9.23951L94.3701 4.54527L92.055 4.54513L92.0546 10.3991L94.3698 9.23951ZM97.5116 11.0069L95.1964 12.1942L98.7787 20.6716L95.499 20.6714L92.5229 13.5746L92.0544 13.8231L92.0539 20.6712L88.912 20.671L88.9132 1.50749L94.949 1.50787C96.5475 1.50797 97.5121 2.44688 97.512 4.13128L97.5116 11.0069Z" fill="white"/>
<path d="M105.327 8.32897L105.327 4.46313L102.791 4.46297L102.791 9.5714L105.327 8.32897ZM108.358 10.483L108.358 18.0214C108.358 19.8162 107.448 20.6722 105.546 20.672L99.7586 20.6717L99.7599 1.50818L105.796 1.50856C107.394 1.50866 108.359 2.44757 108.359 4.13197L108.358 8.16348C108.358 9.40607 107.972 10.1516 107.008 10.4829L108.358 10.483ZM105.326 17.6898L105.326 11.5321L102.791 12.8021L102.791 17.6897L105.326 17.6898Z" fill="white"/>
<path d="M118.211 20.6729L110.632 20.6724L110.633 1.50887L118.213 1.50935L118.212 4.5744L113.775 4.57412L113.775 9.51687L118.212 7.28049L118.212 10.7045L113.775 12.9685L113.774 17.6075L118.212 17.6078L118.211 20.6729Z" fill="white"/>
<path d="M125.591 9.24149L125.591 4.54726L123.276 4.54711L123.276 10.4011L125.591 9.24149ZM128.733 11.0089L126.417 12.1961L130 20.6736L126.72 20.6734L123.744 13.5766L123.275 13.8251L123.275 20.6732L120.133 20.673L120.134 1.50947L126.17 1.50985C127.769 1.50995 128.733 2.44886 128.733 4.13326L128.733 11.0089Z" fill="white"/>
<path fill-rule="evenodd" clip-rule="evenodd" d="M3.8165 4.93827C3.81644 5.76685 4.1459 6.56151 4.73238 7.14743C5.31886 7.73336 6.11432 8.06256 6.94379 8.06261C7.77325 8.06267 8.56876 7.73357 9.15531 7.14771C9.74187 6.56186 10.0714 5.76725 10.0715 4.93867C10.0715 4.1101 9.74207 3.31544 9.15559 2.72951C8.56911 2.14359 7.77364 1.81439 6.94418 1.81433C6.11472 1.81428 5.31921 2.14338 4.73266 2.72923C4.1461 3.31508 3.81655 4.1097 3.8165 4.93827ZM6.94367 9.87663C5.88525 9.87644 4.85484 9.53692 4.00403 8.90802C3.15322 8.27912 2.52694 7.39404 2.21733 6.383C1.90771 5.37196 1.93112 4.28835 2.2841 3.2916C2.63708 2.29484 3.301 1.43758 4.17818 0.845918C5.05535 0.25426 6.09947 -0.0405458 7.15691 0.00487441C8.21435 0.0502947 9.22928 0.433543 10.0524 1.09823C10.8755 1.76292 11.4633 2.67396 11.7293 3.6973C11.9953 4.72064 11.9255 5.80226 11.5302 6.78301L13.4752 8.08117C13.4609 8.12661 13.4475 8.1723 13.4348 8.21822L13.124 9.32677L12.4117 9.8024L10.4062 8.46393C9.5143 9.33662 8.29152 9.87672 6.94367 9.87663ZM3.81573 17.062C3.81578 16.2334 4.14533 15.4388 4.73189 14.8529C5.31844 14.2671 6.11395 13.938 6.94341 13.938C7.77287 13.9381 8.56834 14.2673 9.15482 14.8532C9.7413 15.4391 10.0708 16.2338 10.0707 17.0624C10.0707 17.8909 9.7411 18.6855 9.15454 19.2714C8.56799 19.8572 7.77248 20.1863 6.94302 20.1863C6.11356 20.1862 5.31809 19.857 4.73161 19.2711C4.14513 18.6852 3.81567 17.8905 3.81573 17.062ZM6.94353 12.124C5.88604 12.124 4.85644 12.4628 4.00595 13.0906C3.15546 13.7184 2.52891 14.6021 2.21833 15.6118C1.90775 16.6216 1.92951 17.7043 2.28041 18.7008C2.63131 19.6973 3.29286 20.5551 4.16789 21.1483C5.04292 21.7414 6.0853 22.0387 7.14194 21.9963C8.19858 21.954 9.21378 21.5743 10.0384 20.913C10.8631 20.2517 11.4537 19.3437 11.7235 18.3223C11.9934 17.3009 11.9283 16.22 11.5377 15.2384L32.1659 1.50056L30.247 1.6586C27.541 1.94286 24.9205 2.7709 22.5431 4.09292L16.3384 7.53916C16.1054 7.66917 15.9005 7.84406 15.7356 8.05372C15.5708 8.26337 15.4492 8.50361 15.3779 8.76054L14.8673 10.5866L10.422 13.5553C9.49765 12.6374 8.24689 12.1227 6.94353 12.124ZM16.3137 14.4727L16.338 14.4868L22.5423 17.9339C24.9195 19.2562 27.5399 20.0846 30.2458 20.3692L29.9687 19.0071L27.3466 17.362L19.6754 12.2256L16.3137 14.4727Z" fill="#8162FF"/>
<path d="M35.5046 1.72727H38.9677V15.2784C38.9614 16.5206 38.6979 17.5903 38.1772 18.4874C37.6565 19.3783 36.9287 20.0652 35.994 20.5483C35.0655 21.0251 33.9833 21.2635 32.7473 21.2635C31.6181 21.2635 30.6017 21.0627 29.6983 20.6612C28.8012 20.2534 28.0891 19.6512 27.5621 18.8544C27.0352 18.0576 26.7717 17.0664 26.7717 15.8807H30.2441C30.2504 16.4014 30.3633 16.85 30.5829 17.2264C30.8088 17.6028 31.1193 17.8914 31.5146 18.0922C31.9098 18.2929 32.3646 18.3933 32.8791 18.3933C33.4374 18.3933 33.9111 18.2772 34.3001 18.0451C34.689 17.8067 34.9839 17.4554 35.1847 16.9911C35.3917 16.5269 35.4983 15.956 35.5046 15.2784V1.72727ZM58.5933 1.72727V21H55.4878L46.4067 7.87234H46.2467V21H42.7554V1.72727H45.8797L54.9514 14.8643H55.1208V1.72727H58.5933Z" fill="#8162FF"/>
</svg>
